HIERARCHY
ROOT root
{
	OFFSET	0	13.1	24.9
	CHANNELS 6  Xposition Yposition Zposition Xrotation Yrotation Zrotation
	JOINT spine_1
	{
		OFFSET	0	9.99999	0
		CHANNELS 3  Xrotation Yrotation Zrotation
		JOINT spine_2
		{
			OFFSET	0	112	-10
			CHANNELS 3  Xrotation Yrotation Zrotation
			JOINT spine_3
			{
				OFFSET	0	206.5	19.3
				CHANNELS 3  Xrotation Yrotation Zrotation
				JOINT spine_4
				{
					OFFSET	0	110.4	14.6
					CHANNELS 3  Xrotation Yrotation Zrotation
					JOINT neck_1
					{
						OFFSET	0	71.8	-50.3
						CHANNELS 3  Xrotation Yrotation Zrotation
						JOINT neck_2
						{
							OFFSET	0	86.2	-25.8
							CHANNELS 3  Xrotation Yrotation Zrotation
							JOINT head_ee
							{
								OFFSET	0	179.8	-8.7
								CHANNELS 3  Xrotation Yrotation Zrotation
								End Site
								{
									OFFSET	1	0	0
								}
							}
						}
					}
					JOINT left_clavicle
					{
						OFFSET	-43.2	22.4	-70.8
						CHANNELS 3  Xrotation Yrotation Zrotation
						JOINT left_shoulder
						{
							OFFSET	-93.9	-5.79999	48.7
							CHANNELS 3  Xrotation Yrotation Zrotation
							JOINT left_elbow
							{
								OFFSET	-291.4	-30.8	15.2
								CHANNELS 3  Xrotation Yrotation Zrotation
								JOINT left_lowarm_twist
								{
									OFFSET	-110.7	-3.89999	13.6
									CHANNELS 3  Xrotation Yrotation Zrotation
									JOINT left_hand
									{
										OFFSET	-110.7	-3.89999	13.6
										CHANNELS 3  Xrotation Yrotation Zrotation
										JOINT left_ee
										{
											OFFSET	-80.8	-5.10001	12.1
											CHANNELS 3  Xrotation Yrotation Zrotation
											End Site
											{
												OFFSET	1	0	0
											}
										}
									}
								}
							}
						}
					}
					JOINT right_clavicle
					{
						OFFSET	43.2	22.4	-70.8
						CHANNELS 3  Xrotation Yrotation Zrotation
						JOINT right_shoulder
						{
							OFFSET	93.9	-5.79999	48.7
							CHANNELS 3  Xrotation Yrotation Zrotation
							JOINT right_elbow
							{
								OFFSET	291.4	-30.8	15.2
								CHANNELS 3  Xrotation Yrotation Zrotation
								JOINT right_lowarm_twist
								{
									OFFSET	110.7	-3.89999	13.6
									CHANNELS 3  Xrotation Yrotation Zrotation
									JOINT right_hand
									{
										OFFSET	110.7	-3.89999	13.6
										CHANNELS 3  Xrotation Yrotation Zrotation
										JOINT right_ee
										{
											OFFSET	80.8	-5.10001	12.1
											CHANNELS 3  Xrotation Yrotation Zrotation
											End Site
											{
												OFFSET	1	0	0
											}
										}
									}
								}
							}
						}
					}
				}
			}
		}
	}
	JOINT left_hip
	{
		OFFSET	-82.8	-127.5	0.300001
		CHANNELS 3  Xrotation Yrotation Zrotation
		JOINT left_knee
		{
			OFFSET	-28.2	-396.7	2.2
			CHANNELS 3  Xrotation Yrotation Zrotation
			JOINT left_ankle
			{
				OFFSET	-11.7	-411.3	35.4
				CHANNELS 3  Xrotation Yrotation Zrotation
				JOINT left_toes
				{
					OFFSET	0	-60	-88.6
					CHANNELS 3  Xrotation Yrotation Zrotation
					JOINT left_foot_ee
					{
						OFFSET	-22.5	-16.5	-42.2
						CHANNELS 3  Xrotation Yrotation Zrotation
						End Site
						{
							OFFSET	1	0	0
						}
					}
				}
			}
		}
	}
	JOINT right_hip
	{
		OFFSET	82.8	-127.5	0.300001
		CHANNELS 3  Xrotation Yrotation Zrotation
		JOINT right_knee
		{
			OFFSET	28.2	-396.7	2.2
			CHANNELS 3  Xrotation Yrotation Zrotation
			JOINT right_ankle
			{
				OFFSET	11.7	-411.3	35.4
				CHANNELS 3  Xrotation Yrotation Zrotation
				JOINT right_toes
				{
					OFFSET	0	-60	-88.6
					CHANNELS 3  Xrotation Yrotation Zrotation
					JOINT right_foot_ee
					{
						OFFSET	22.5	-16.5	-42.2
						CHANNELS 3  Xrotation Yrotation Zrotation
						End Site
						{
							OFFSET	1	0	0
						}
					}
				}
			}
		}
	}
}
MOTION
Frames: 5
Frame Time: 0.02
2800.94 716.97 -1473.77 -152.040910753 76.4412711927 148.116095084 3.51995 0.465871 3.88047 3.5283 0.218195 3.9022 3.53938 -0.367717 3.89098 3.51834 0.250924 3.90024 -12.6775 16.3982 -0.325869 -13.3623 31.3867 4.7878 -0.0 0.0 -0.0 -8.50739 23.6654 -9.05777 -26.7188 -20.0513 69.7738 1.06582 -27.8323 0.264091 18.116 0.278713 -2.28775 -0.963931 -2.37753 -7.49754 -0.0 0.0 -0.0 12.3667 22.5005 -24.577 -3.26621 46.6375 -60.5161 1.37138 34.1881 -0.421754 59.8624 1.76169 7.09522 2.63215 -5.49691 -19.9839 0.0 0.0 0.0 -13.3681 -1.1656 11.0004 -5.85023 0.196282 0.875995 34.8673 -15.6121 -4.70138 -35.7025 0.0 0.0 -0.0 0.0 -0.0 38.1628 2.95567 -2.85902 -16.5966 -0.320634 -2.51785 -5.33763 12.6589 -0.847582 0.59795 -0.0 -0.0 0.0 0.0 0.0 
2787.48826102 715.21 -1467.14527974 -153.091137035 76.4673050483 148.887721934 3.43474 0.3437 3.96613 3.44348 0.0908327 3.97993 3.44599 -0.512041 3.94795 3.42426 0.117379 3.97924 -11.6825 16.1285 -0.993566 -12.2341 31.2108 3.75343 -0.0 0.0 -0.0 -7.90812 23.3741 -8.30051 -26.16 -19.5161 69.8729 0.993944 -26.2138 0.231429 18.4726 0.276893 -2.33326 -1.30982 -1.697 -9.5427 -0.0 0.0 -0.0 12.4664 22.6743 -24.7912 -4.42964 46.3979 -60.082 1.30427 32.8649 -0.384686 59.2231 1.70525 7.0358 2.49789 -6.52782 -19.4206 0.0 0.0 0.0 -14.5056 -1.07934 11.8171 -6.03461 0.201007 0.903895 35.511 -12.3804 -4.67208 -35.5696 0.0 0.0 -0.0 0.0 -0.0 37.1987 2.92194 -2.5184 -17.0258 -0.31919 -2.58367 -3.89076 11.9752 -0.613163 1.55205 -0.0 -0.0 0.0 0.0 0.0 
2766.65606902 718.67 -1459.89545582 -155.750320101 77.9203500095 151.100520377 3.22685 0.470859 3.93814 3.23545 0.219512 3.96007 3.24741 -0.39523 3.94643 3.22576 0.232491 3.95933 -12.7495 16.1996 -0.132725 -13.4186 30.8948 4.92115 -0.0 0.0 -0.0 -7.9646 23.7409 -8.25154 -25.8977 -19.5516 69.7217 1.12999 -29.2377 0.294747 17.9629 0.279408 -2.26821 -1.31206 -1.31497 -9.38685 -0.0 0.0 -0.0 12.3792 22.3077 -24.623 -6.41687 46.0218 -60.399 1.31821 33.1431 -0.392279 58.9579 1.68203 7.01097 2.45265 -6.86451 -19.2276 0.0 0.0 0.0 -14.6589 -2.29235 11.8586 -8.75564 0.260267 1.31721 33.0574 -12.4089 -4.42607 -35.573 0.0 0.0 -0.0 0.0 -0.0 34.7964 4.11869 -1.82431 -18.331 -0.311768 -2.78379 -3.10416 12.1076 -0.488769 3.13386 -0.0 -0.0 0.0 0.0 0.0 
2747.61664871 721.535 -1458.49271599 -158.523340172 79.2349073367 153.603453808 3.11559 0.564016 3.81275 3.12362 0.320442 3.84086 3.1424 -0.283876 3.84373 3.12194 0.326271 3.84036 -14.8102 16.122 0.475534 -15.701 30.547 6.09708 -0.0 0.0 -0.0 -8.20497 23.635 -8.63384 -26.1933 -19.7191 69.3492 1.25129 -31.7914 0.356351 17.7186 0.280409 -2.23702 -0.951326 -1.43023 -6.99569 -0.0 0.0 -0.0 12.6276 21.7785 -25.2423 -8.29283 45.3618 -60.24 1.28525 32.4824 -0.374416 58.6609 1.65617 6.98303 2.21079 -5.95166 -17.225 0.0 0.0 0.0 -15.3018 -3.39308 12.0279 -9.95954 0.280208 1.50087 28.4762 -11.7822 -3.91528 -36.7197 0.0 0.0 -0.0 0.0 -0.0 33.0519 5.48911 -2.10739 -19.2232 -0.304073 -2.92047 -2.56588 10.3885 -0.399186 4.61335 -0.0 -0.0 0.0 0.0 0.0 
2733.22976452 725.445 -1453.9660582 -156.610168621 79.7654549283 151.784503006 3.02573 0.551014 3.65191 3.03309 0.317679 3.67952 3.0512 -0.267221 3.68352 3.03241 0.317471 3.67953 -14.6273 15.7374 0.449067 -15.4497 29.8128 5.86346 -0.0 0.0 -0.0 -8.13543 23.7129 -8.50587 -24.1706 -19.6894 70.0004 1.27057 -32.185 0.366565 18.5916 0.276221 -2.34845 -0.485019 2.02438 -2.36949 -0.0 0.0 -0.0 12.7813 21.9036 -25.5876 -10.1446 44.5935 -59.8408 1.23604 31.4777 -0.348352 58.4693 1.63956 6.96494 2.15716 -4.06994 -16.1534 0.0 0.0 0.0 -15.9218 -5.48586 11.5943 -8.2719 0.251168 1.24354 23.8314 -12.1966 -3.3766 -39.1466 0.0 0.0 -0.0 0.0 -0.0 31.3067 6.38978 -2.25797 -19.8715 -0.297146 -3.0197 -0.168833 3.57937 -0.0252695 8.50659 -0.0 -0.0 0.0 0.0 0.0 
